# xmcd CD database file
#
# Track frame offsets:
#	150
#	16098
#	33160
#	47405
#	65223
#	81596
#	98202
#	113223
#	126315
#
# Disc length: 1877 seconds
#
# Revision: 0
# Processed by: cddbd v1.5.1PL0 Copyright (c) Steve Scherf et al.
# Submitted via: CDex 1.51
#
DISCID=74075309
DTITLE=Canned Heat - Grinding It Out (In Memory Of Bob Hite)
DYEAR=1980
DGENRE=Blues
TTITLE0=You Gotta Move
TTITLE1=It Won't Be Long
TTITLE2=Somethin' About You
TTITLE3=On The Road Again (Disco Version)
TTITLE4=Why Didn't I Know?
TTITLE5=Cadillac Walk
TTITLE6=She's Gonna Feel My Love
TTITLE7=No More Dough, Yockomo
TTITLE8=Wild Love
EXTD=YEAR: 1980
EXTT0=
EXTT1=
EXTT2=
EXTT3=
EXTT4=
EXTT5=
EXTT6=
EXTT7=
EXTT8=
PLAYORDER=
